<?xml version="1.0" encoding="UTF-8" standalone="no"?>
<!-- Generator: Adobe Illustrator 19.2.0, SVG Export Plug-In . SVG Version: 6.00 Build 0)  -->

<svg
   id="Layer_1"
   style="enable-background:new 0 0 98.7 27"
   xml:space="preserve"
   viewBox="0 0 98.7 27"
   version="1.1"
   y="0px"
   x="0px"
   sodipodi:docname="logo.svg"
   inkscape:version="1.3 (0e150ed6c4, 2023-07-21)"
   xmlns:inkscape="http://www.inkscape.org/namespaces/inkscape"
   xmlns:sodipodi="http://sodipodi.sourceforge.net/DTD/sodipodi-0.dtd"
   xmlns:xlink="http://www.w3.org/1999/xlink"
   xmlns="http://www.w3.org/2000/svg"
   xmlns:svg="http://www.w3.org/2000/svg"><defs
   id="defs4"><color-profile
     name="Agfa-:-Swop-Standard"
     xlink:href="../../../../Windows/system32/spool/drivers/color/RSWOP.icm"
     id="color-profile1" /><color-profile
     name="sRGB-IEC61966-2.1"
     xlink:href="../../../../Windows/system32/spool/drivers/color/sRGB%20Color%20Space%20Profile.icm"
     id="color-profile2" /><clipPath
     clipPathUnits="userSpaceOnUse"
     id="clipPath168"><path
       id="path169"
       style="fill:#ff0000;fill-opacity:1;fill-rule:nonzero;stroke:none"
       d="M 60.349609,2.1074219 V 24.806641 h 1.455079 c 1.7e-4,-0.0072 -1.49e-4,-0.01441 0,-0.02148 5.59e-4,-0.02826 -1.58e-4,-0.05571 0,-0.08398 0,-0.02927 0.0012,-0.05863 0.002,-0.08789 8e-4,-0.03054 0.0023,-0.0613 0.0039,-0.0918 0.0014,-0.02707 0.0036,-0.05502 0.0059,-0.08203 0.002,-0.01981 0.0026,-0.03873 0.0039,-0.05859 0.0012,-0.02038 0.0023,-0.0402 0.0039,-0.06055 0.0016,-0.01992 0.0041,-0.04064 0.0059,-0.06055 0.0015,-0.0175 0.0015,-0.03517 0.002,-0.05273 4e-4,-0.02693 0.0024,-0.05319 0.0039,-0.08008 0.0017,-0.02217 0.0022,-0.04418 0.002,-0.06641 -5.26e-4,-0.02803 -1.23e-4,-0.05597 0,-0.08398 3e-4,-0.03035 4.59e-4,-0.06149 0.002,-0.0918 0.0013,-0.029 0.0023,-0.0589 0.0039,-0.08789 0.0015,-0.0292 0.0041,-0.05676 0.0059,-0.08594 0.002,-0.03344 0.004,-0.06812 0.0059,-0.101563 0.002,-0.03211 0.0027,-0.06355 0.0039,-0.0957 9.19e-4,-0.02711 0.0017,-0.05491 0.002,-0.08203 1.87e-4,-0.02235 -4.8e-5,-0.04406 0,-0.06641 3.6e-5,-0.01901 -7e-6,-0.03763 0,-0.05664 5e-6,-0.01744 -10e-7,-0.03529 0,-0.05273 0,-0.01086 -1.02e-4,-0.0059 0,-0.01758 2.8e-4,-0.03238 0.0054,-0.06013 0.01172,-0.08594 2e-5,-0.0078 3.2e-5,-0.0157 0,-0.02344 -6.4e-5,-0.0215 -1.7e-5,-0.04295 0,-0.06445 2e-4,-0.01861 3.06e-4,-0.03614 0.002,-0.05469 0.0016,-0.01643 0.0041,-0.03273 0.0078,-0.04883 0.0055,-0.02082 0.01289,-0.04168 0.02344,-0.06055 0.0097,-0.01752 0.02099,-0.03491 0.0332,-0.05078 0.01174,-0.01535 0.02237,-0.03043 0.03516,-0.04492 0.06625,-0.07506 0.136112,-0.106005 0.19336,-0.105469 0.125946,0.0012 0.193687,0.154414 0.04883,0.320312 -0.0069,0.0079 -0.01322,0.01705 -0.01953,0.02539 -3.47e-4,0.0074 3.6e-5,0.016 0,0.02344 1.6e-5,0.02029 -6.1e-5,0.04026 0,0.06055 1.3e-4,0.02512 -2.48e-4,0.05105 0,0.07617 3e-4,0.02397 9.06e-4,0.04636 0.002,0.07031 0.0011,0.02813 0.0016,0.05779 0.002,0.08594 2.7e-4,0.0218 0.0019,0.04265 0.002,0.06445 3e-4,0.02042 -3.89e-4,0.04013 0,0.06055 6.83e-4,0.02551 9.78e-4,0.05261 0,0.07813 -0.0011,0.02093 -0.0014,0.04156 -0.002,0.0625 -6e-4,0.02616 -0.0015,0.05194 -0.002,0.07813 -4.83e-4,0.02392 -5.14e-4,0.04834 0,0.07227 7e-4,0.02629 0.0024,0.05185 0.0039,0.07813 0.0014,0.02496 0.0027,0.04944 0.0059,0.07422 0.0037,0.02681 0.0095,0.05335 0.01367,0.08008 0.0042,0.02683 0.0081,0.0551 0.01172,0.08203 0.0035,0.02638 0.0067,0.05167 0.0098,0.07813 0.0037,0.03214 0.005,0.06533 0.0059,0.09766 7e-4,0.03795 -1.06e-4,0.07537 -0.002,0.113281 -0.002,0.03643 -0.0057,0.07296 -0.0078,0.109375 -0.0013,0.02773 -0.0019,0.05622 -0.002,0.08398 0,0.02445 0.0025,0.04786 0.0039,0.07227 0.0015,0.02639 0.0039,0.05372 0.0059,0.08008 0.002,0.02517 0.0018,0.04906 0.0039,0.07422 1.67e-4,0.0019 -2.04e-4,0.0039 0,0.0059 H 72.972656 V 4.5078125 c -0.07213,0.015449 -0.144388,0.03051 -0.216797,0.044922 -0.391904,0.077215 -0.790708,0.1166184 -1.189453,0.1308594 C 71.244889,4.6933153 70.926139,4.664363 70.607422,4.625 70.364714,4.5939811 70.124364,4.546902 69.884766,4.4980469 69.708079,4.4610779 69.529917,4.433693 69.351562,4.40625 69.173686,4.378705 68.994971,4.3527521 68.816406,4.3300781 68.61696,4.3058191 68.416023,4.2838525 68.216797,4.2578125 68.022638,4.2312215 67.828875,4.2065775 67.634766,4.1796875 67.454132,4.1544485 67.273914,4.1239741 67.09375,4.0957031 c -0.108112,-0.019133 -0.216663,-0.02449 -0.326172,-0.025391 -0.152264,0.00131 -0.304795,0.00459 -0.457031,0.00781 -0.124548,0.00287 -0.248833,0.00811 -0.373047,0.017578 -0.106607,0.00865 -0.214044,0.021228 -0.320312,0.033203 -0.06832,0.00792 -0.135336,0.015672 -0.203126,0.027344 -0.04245,0.00983 -0.0094,0.00164 0.01367,-0.00586 0.07086,-0.023776 0.13044,-0.066868 0.1875,-0.1132812 -0.02465,0.0045 -0.04962,0.00885 -0.07422,0.013672 -0.171995,0.034412 -0.343818,0.068153 -0.511719,0.1191407 -0.275084,0.083538 -0.520588,0.1089181 -0.730469,0.091797 -0.136104,0.1283736 -0.311644,0.1030819 -0.392578,-0.042969 -0.127267,0.1027761 -0.288966,0.074143 -0.369141,-0.066406 -0.04681,0.1435481 -0.0879,0.2884469 -0.123047,0.4355468 -0.13272,0.555418 -0.694514,0.4203543 -0.560546,-0.1347656 0.04146,-0.1717896 0.08861,-0.3421789 0.144531,-0.5097656 -0.08205,0.078337 -0.203918,0.00988 -0.162109,-0.1582032 0.01046,-0.042052 0.02225,-0.085027 0.0332,-0.1269531 0.0056,-0.021543 0.0117,-0.043005 0.01758,-0.064453 -0.04124,0.032311 -0.09338,0.031539 -0.128907,-0.00977 -0.02702,0.1128333 -0.114116,0.1442814 -0.169921,0.09375 -4.05e-4,0.00523 -0.0016,0.010391 -0.002,0.015625 -0.0161,0.2223841 -0.24082,0.2067512 -0.22461,-0.015625 0.0024,-0.033529 0.005,-0.068061 0.0078,-0.1015625 9.86e-4,-0.011838 0.0028,-0.023335 0.0039,-0.035156 -0.01491,0.00421 -0.03023,0.00568 -0.04492,0.00195 2.48e-4,0.00782 -2.34e-4,0.015557 0,0.023437 0.0021,0.066461 0.0012,0.1347118 0,0.2011719 -0.0036,0.2023876 -0.187603,0.2148237 -0.21875,0.048828 -0.014,0.035801 -0.03879,0.057813 -0.06641,0.066406 -0.06095,0.076491 -0.182737,0.03862 -0.191407,-0.1230469 -0.0017,-0.031672 -0.0029,-0.063998 -0.0039,-0.095703 -10e-4,-0.035399 -0.0024,-0.070053 -0.002,-0.1054687 2.44e-4,-0.028712 0.0017,-0.057226 0.002,-0.085938 2.49e-4,-0.029255 -4.94e-4,-0.058639 0,-0.087891 3.66e-4,-0.028145 4.5e-4,-0.05584 0,-0.083984 -3.71e-4,-0.029868 9.6e-5,-0.059973 0,-0.089844 -1.87e-4,-0.031583 -1.9e-5,-0.06412 0,-0.095703 -5.3e-5,-0.036631 -5.56e-4,-0.072747 0,-0.109375 6e-4,-0.043964 0.0014,-0.088848 0.002,-0.1328125 4.81e-4,-0.047637 8.25e-4,-0.094943 0,-0.1425781 -0.0011,-0.045594 -0.0026,-0.091229 -0.0059,-0.1367188 -0.0037,-0.051502 -0.0091,-0.1028689 -0.01367,-0.1542969 -0.0053,-0.062444 -0.0095,-0.124854 -0.01172,-0.1875 -0.0017,-0.048311 -0.0033,-0.096136 -0.0039,-0.1445312 z m 1.964844,0 c 1.71e-4,0.00258 -1.63e-4,0.00523 0,0.00781 3.63e-4,-0.00201 0.0016,-0.00385 0.002,-0.00586 v -0.00195 z m 4.939453,5.71875 c 0.03934,0.0077 0.07009,0.054956 0.05469,0.1328125 -0.06653,0.3363676 -0.135668,0.6720288 -0.205078,1.0078125 -0.151119,0.7038993 -0.288404,1.4115431 -0.398438,2.1230471 -0.02861,0.186735 -0.05134,0.374827 -0.07031,0.5625 0.01652,0.01152 0.03495,0.02062 0.05078,0.0332 0.07145,0.05678 0.05046,0.175465 0.06445,0.265625 0.0068,0.04369 -0.0015,0.08867 -0.0039,0.132812 -0.006,0.109096 -0.02886,0.217086 -0.03516,0.326172 -0.01947,0.180382 -0.03634,0.361756 -0.05078,0.542969 0.09323,-0.184452 0.188966,-0.367974 0.285156,-0.550781 0.06852,-0.129207 0.137905,-0.256954 0.208985,-0.384766 0.01334,-0.024 0.02751,-0.04837 0.04102,-0.07227 0.0059,-0.01046 0.0068,-0.03665 0.01758,-0.03125 0.02728,0.01367 0.04975,0.03367 0.07227,0.05469 0.02299,0.0065 0.04579,0.01355 0.06641,0.02539 0.008,0.0046 -0.0058,0.01454 -0.01367,0.02344 l 0.002,0.002 c -0.04691,0.08852 -0.09231,0.176821 -0.138672,0.265625 0.03546,0.03935 0.05183,0.09325 0.07617,0.140625 0.0066,-0.0049 0.01377,-0.01899 0.01758,-0.02344 l 0.002,0.002 c 0.0012,0.009 -0.0062,0.01463 -0.01367,0.02148 0.01265,-0.0027 0.02314,-0.0048 0.0332,-0.0059 0.05129,-0.0526 0.110275,-0.114841 0.13086,-0.132813 0.06061,-0.05291 0.114603,-0.177947 0.189453,-0.148437 0.290782,0.114677 0.537233,0.318236 0.794922,0.498047 0.181283,-0.04091 0.363501,-0.07758 0.546875,-0.107422 0.147184,-0.09775 0.294887,-0.19503 0.449218,-0.28125 0.06424,-0.03588 0.129216,-0.07357 0.197266,-0.101563 0.07841,-0.03225 0.164389,-0.106753 0.242188,-0.08984 -0.0097,-0.174019 -0.0564,-0.34485 -0.08008,-0.519532 -0.01103,-0.0814 -0.01438,-0.164253 -0.02148,-0.246093 -0.0059,-0.06816 -0.0051,-0.135855 -0.01758,-0.203125 -0.01405,-0.07587 -0.0419,-0.15025 -0.0625,-0.22461 -0.01734,-0.05831 -0.0394,-0.114068 -0.05078,-0.173828 -0.01227,-0.06437 -0.0032,-0.131852 -0.01953,-0.195312 -0.02054,-0.08001 -0.06044,-0.153279 -0.08984,-0.230469 -0.01649,-0.04331 -0.03807,-0.08535 -0.04687,-0.13086 -0.01289,-0.06705 -0.0088,-0.1373641 -0.01758,-0.2050776 -0.008,-0.061613 -0.02229,-0.1224268 -0.0332,-0.1835938 -0.01255,-0.084584 -0.04518,-0.331845 -0.07617,-0.4140625 C 69.338504,9.2963051 69.13911,8.9486685 69.125,8.9296875 69.05634,8.8373327 68.953423,8.7690621 68.898438,8.6679688 c -0.04238,-0.077907 -0.03796,-0.1730692 -0.05664,-0.2597657 -0.02612,-0.086761 -0.052,-0.1730051 -0.07813,-0.2597656 -0.02178,-0.07232 0.0035,-0.1060825 0.04102,-0.1035156 0.03754,0.00257 0.08741,0.041641 0.111328,0.1132812 l 0.07813,0.2324219 c 0.07919,0.3867725 -0.02563,0.057928 0.257812,0.4550781 0.04916,0.068875 0.220817,0.3989728 0.253906,0.4960938 0.01937,0.056865 0.0665,0.3333771 0.07813,0.4003906 0.01077,0.068638 0.02048,0.1383933 0.03125,0.2070313 0.0065,0.05956 0.01093,0.1184342 0.01953,0.1777342 0.0095,0.06609 0.01044,0.135236 0.03516,0.197266 0.01903,0.04776 0.07498,0.07446 0.0918,0.123047 0.04595,0.132747 -0.0026,0.288882 0.08203,0.414062 0.01995,0.06974 0.04606,0.137539 0.05859,0.208984 0.02856,0.162888 0.01612,0.330366 0.03906,0.494141 0.01131,0.08072 0.03752,0.159805 0.05078,0.240235 0.03296,0.199806 0.0349,0.240956 0.02344,0.333984 0.09756,0.06449 0.191148,0.135821 0.279297,0.214844 0.194507,-0.121706 0.390551,-0.239156 0.591797,-0.34961 0.06012,-0.02659 0.12073,-0.104748 0.18164,-0.08008 0.289314,0.117481 0.60466,0.240691 0.804688,0.480469 0.108002,0.129465 -0.05405,0.378778 -0.130859,0.515625 -0.09476,0.16397 -0.187837,0.32974 -0.285157,0.492187 -0.132101,0.218712 -0.261933,0.443197 -0.439453,0.628907 -0.04112,0.03284 -0.07823,0.07008 -0.123047,0.09766 -0.14508,0.08928 -0.310151,0.128382 -0.478515,0.107422 -0.01623,-0.0016 -0.03256,-0.0024 -0.04883,-0.0039 0.0455,0.04402 0.09082,0.08926 0.132812,0.136718 0.06437,0.07275 0.115791,0.156022 0.175781,0.232422 0.05947,0.07574 0.131151,0.140666 0.181641,0.222656 0.01818,0.02954 0.01556,0.11687 0.01563,0.15625 1.75e-4,0.158727 -0.158614,0.180198 -0.158203,0.02149 9e-5,-0.0366 0.003,-0.145262 -0.01367,-0.169922 -0.03696,-0.05457 -0.103249,-0.08307 -0.146484,-0.132813 -0.06179,-0.07108 -0.105879,-0.155742 -0.167969,-0.226562 -0.07786,-0.0888 -0.165594,-0.167565 -0.248047,-0.251953 -0.125645,-0.0019 -0.251311,-0.0012 -0.376953,0.002 -0.08279,0.06727 -0.166067,0.132952 -0.248047,0.201172 -0.283573,0.23868 -0.594312,0.534793 -1.050781,0.09375 -0.02921,-0.02822 -0.05246,-0.05645 -0.07422,-0.08399 -0.08042,0.05813 -0.159299,0.118402 -0.240234,0.175782 -0.283265,0.195844 -0.604743,0.421864 -0.945313,0.330078 -0.03286,0.246983 -0.07165,0.493647 -0.136719,0.734375 -0.03434,0.115411 -0.06854,0.23298 -0.132812,0.335937 -0.05789,0.08112 -0.144292,0.137775 -0.207032,0.01758 -0.01822,-0.05723 -0.0229,-0.116361 -0.0293,-0.175781 -0.01971,-0.180381 -0.04239,-0.36116 -0.06641,-0.541016 -0.02612,-0.199222 -0.0528,-0.398589 -0.07813,-0.597656 -0.01487,0.0058 -0.02922,0.01408 -0.04492,0.01758 -0.323573,0.07221 -0.516064,0.04842 -0.787109,-0.189453 -0.03001,-0.02634 -0.05522,-0.05701 -0.07813,-0.08984 -0.0035,0.07817 -0.0065,0.156686 -0.01563,0.234374 -4.94e-4,0.0033 -0.0013,0.0065 -0.002,0.0098 v 0.0039 0.01953 c -0.0021,8.3e-5 -0.0038,-8.6e-5 -0.0059,0 -0.06746,0.221784 -0.460985,0.325512 -0.783203,0.283203 0.02704,0.152379 0.05066,0.305186 0.06836,0.458984 0.0092,0.0797 0.01247,0.160085 0.01367,0.240235 2.62e-4,0.02717 -1.32e-4,0.0147 0,0.03906 0.0018,0.327249 -0.328378,0.327703 -0.330078,0.002 -1.17e-4,-0.02235 2.34e-4,-0.01224 0,-0.03711 -0.001,-0.06922 -0.0038,-0.138192 -0.01172,-0.207032 -0.01905,-0.166175 -0.04389,-0.331567 -0.07422,-0.496093 -0.0094,-0.05136 -0.01962,-0.102954 -0.0293,-0.154297 -0.0394,-0.01365 -0.06038,-0.04626 -0.06641,-0.107422 -0.08594,0.04486 -0.172368,0.08648 -0.259766,0.128906 -0.0052,0.01498 -0.01001,0.03005 -0.01563,0.04492 -0.256688,0.378 -0.204247,0.421649 -0.996093,0.214844 -0.05995,-0.01566 -0.104496,-0.08497 -0.138672,-0.171875 -0.195465,0.215809 -0.695695,0.09451 -0.935547,-0.144531 -0.1914,0.04728 -0.221418,0.04597 -0.224609,-0.126954 -0.0014,-2e-6 -0.0025,3.3e-5 -0.0039,0 v -0.002 -0.0098 -0.02539 -0.02734 -0.0332 -0.04687 -0.06055 -0.07226 -0.08399 c 3e-6,-0.02989 -1.6e-5,-0.05995 0,-0.08984 2.1e-5,-0.03127 0.0018,-0.06248 0.002,-0.09375 1.04e-4,-0.03866 -6.83e-4,-0.07658 0,-0.115235 10e-4,-0.05356 0.0036,-0.108689 0.0078,-0.162109 0.0056,-0.06567 0.01265,-0.130593 0.02539,-0.195313 0.0073,-0.04022 0.01458,-0.08079 0.02148,-0.121093 0.0029,-0.01645 0.0066,-0.03243 0.0098,-0.04883 -3.63e-4,-0.04571 -0.0018,-0.09101 -0.002,-0.136718 4e-4,-0.03033 0.0019,-0.05959 0,-0.08984 -0.0028,-0.04295 -0.0046,-0.08588 -0.0059,-0.128906 -0.0011,-0.03762 -0.0017,-0.07565 -0.002,-0.113282 1e-4,-0.02301 -0.0025,-0.04532 -0.0039,-0.06836 -0.0028,-0.02336 -0.0025,-0.04703 -0.0059,-0.07031 -0.0057,-0.0386 -0.01067,-0.07831 -0.01367,-0.117188 -0.0027,-0.03657 -0.0031,-0.07273 -0.0039,-0.109375 -4.76e-4,-0.02372 1.06e-4,-0.04854 0,-0.07227 -6.4e-5,-0.01691 1.6e-5,-0.03387 0,-0.05078 -1e-5,-0.0112 2e-6,-0.022 0,-0.0332 v -0.01367 c -4.8e-5,-0.621547 0.321066,-0.92365 0.634766,-0.90625 0.03557,-0.08389 0.07129,-0.16916 0.117187,-0.248047 0.02574,-0.03553 0.03242,-0.104253 0.07617,-0.107421 0.727894,-0.05405 0.793304,-0.214148 0.996094,0.103515 0.04579,0.0778 0.08329,0.160847 0.107422,0.248047 0.0095,0.03504 0.01779,0.07001 0.02539,0.105469 0.0039,5.65e-4 0.0079,0.0014 0.01172,0.002 0.100948,0.01553 0.158241,0.241397 0.181641,0.349609 0.056,-0.07506 0.12039,-0.144069 0.179687,-0.216797 -0.04779,-0.476113 -0.105314,-0.951381 -0.205078,-1.419922 -0.0561,-0.262399 -0.114464,-0.5243564 -0.177734,-0.7851558 -0.04339,-0.1788621 0.03835,-0.2805275 0.132812,-0.2792968 0.07347,9.572e-4 0.153751,0.064005 0.1875,0.203125 0.06385,0.2631892 0.123056,0.5281326 0.179688,0.7929686 0.0072,0.03367 0.01277,0.06782 0.01953,0.101563 0.105901,-0.235884 0.294892,-0.358047 0.490234,-0.355469 0.286728,0.0038 0.585038,0.274181 0.644532,0.837891 0.01922,0.182116 0.03077,0.364187 0.04297,0.546874 0.0051,0.07733 0.0071,0.155064 0.01172,0.232422 0.03607,-0.06137 0.07497,-0.120841 0.09961,-0.140625 0.111575,-0.08961 0.24184,-0.152765 0.363281,-0.228515 0.163799,0.08031 0.341226,0.138105 0.503906,0.220703 0.01783,-0.165971 0.03719,-0.331003 0.0625,-0.496094 0.110499,-0.714149 0.246724,-1.4223815 0.398437,-2.1289061 0.06929,-0.3352283 0.140612,-0.6720021 0.207032,-1.0078125 0.0154,-0.077856 0.06222,-0.1092594 0.101562,-0.1015625 z m 2.257813,4.5156251 c -6.49e-4,0.002 -0.0013,0.0039 -0.002,0.0059 0.0011,-0.0014 0.0028,-0.0025 0.0039,-0.0039 z m -2.683594,2.339844 c -0.0042,0.01253 -0.03853,0.120238 -0.07031,0.103515 -0.01474,-0.0078 -0.02792,-0.01901 -0.03906,-0.03125 0.02324,0.182235 0.04839,0.364731 0.07227,0.546875 0.02304,0.172495 0.04331,0.344618 0.0625,0.517578 0.02335,-0.05875 0.04264,-0.1192 0.06055,-0.179687 0.06612,-0.24641 0.104539,-0.49893 0.136719,-0.751953 -0.04389,-0.02483 -0.08846,-0.05016 -0.132812,-0.08789 -0.03802,-0.03235 -0.06666,-0.07345 -0.08984,-0.117187 z m -5.458984,7.960937 c 0.08624,-0.0013 0.168782,0.08862 0.15039,0.257813 -0.0054,0.04934 -0.01273,0.09927 -0.01953,0.148437 -0.01101,0.0774 -0.02175,0.154822 -0.03125,0.232422 -0.0088,0.07254 -0.01679,0.144227 -0.02539,0.216797 -0.0067,0.056 -0.01464,0.112269 -0.02344,0.167969 -0.005,0.03166 -0.0093,0.06393 -0.01367,0.0957 -0.0016,0.01161 -0.003,0.02348 -0.0039,0.03516 -4e-4,0.01019 -0.0025,0.01919 -0.0039,0.0293 -0.04247,0.316821 -0.27857,-0.367576 -0.31836,-0.05469 0.0014,-0.01805 0.0015,-0.03675 0.0039,-0.05469 0.0047,-0.0338 0.01022,-0.06787 0.01563,-0.101563 0.0081,-0.05169 0.01724,-0.102338 0.02344,-0.154296 0.0087,-0.07292 0.01649,-0.145862 0.02539,-0.21875 0.0097,-0.0792 0.02,-0.159292 0.03125,-0.238282 0.0063,-0.04618 0.01248,-0.09233 0.01758,-0.138672 0.01632,-0.149273 0.09578,-0.221517 0.171875,-0.222656 z" /></clipPath></defs><sodipodi:namedview
   id="namedview4"
   pagecolor="#ffffff"
   bordercolor="#000000"
   borderopacity="0.25"
   inkscape:showpageshadow="2"
   inkscape:pageopacity="0.0"
   inkscape:pagecheckerboard="0"
   inkscape:deskcolor="#d1d1d1"
   inkscape:lockguides="true"
   inkscape:zoom="11.313709"
   inkscape:cx="23.246135"
   inkscape:cy="35.04598"
   inkscape:window-width="1920"
   inkscape:window-height="1094"
   inkscape:window-x="-11"
   inkscape:window-y="-11"
   inkscape:window-maximized="1"
   inkscape:current-layer="Layer_1" />&#10;<style
   type="text/css"
   id="style1">&#10;	.st0{fill:#FFFFFF;}&#10;</style>&#10;	<path
   class="st0"
   d="m 48.749555,5.8075556 c -0.1,0.2 -0.3,0.4 -0.4,0.5 -0.2,0.1 -0.3,0.1 -0.6,0.1 -0.2,0 -0.5,-0.1 -0.7,-0.2 -0.3,-0.2 -0.6,-0.3 -0.9,-0.6 -0.3,-0.3 -0.8,-0.4 -1.3,-0.6 -0.5,-0.2 -1.1,-0.2 -1.7,-0.2 -0.6,0 -1.1,0.1 -1.6,0.2 -0.4,0.2 -0.8,0.4 -1.1,0.7 -0.3,0.3 -0.5,0.6 -0.7,0.9 -0.2,0.3 -0.2,0.8 -0.2,1.2 0,0.5 0.2,1 0.5,1.4 0.3,0.4 0.7,0.7 1.2,0.9000004 0.5,0.3 1.1,0.5 1.7,0.7 0.6,0.2 1.3,0.4 2,0.6 0.7,0.2 1.3,0.5 2,0.8 0.6,0.3 1.2,0.7 1.7,1.2 0.5,0.5 0.9,1 1.2,1.7 0.3,0.7 0.5,1.5 0.5,2.4 0,1 -0.2,2 -0.5,2.9 -0.3,0.9 -0.9,1.7 -1.6,2.4 -0.7,0.7 -1.5,1.2 -2.5,1.6 -1,0.4 -2.1,0.6 -3.4,0.6 -0.7,0 -1.5,-0.1 -2.2,-0.2 -0.8,-0.1 -1.5,-0.3 -2.2,-0.6 -0.7,-0.3 -1.3,-0.6 -1.8,-1 -0.6,-0.4 -1.1,-0.8 -1.5,-1.2 l 1.2,-2.1 0.4,-0.4 c 0.2,-0.1 0.3,-0.2 0.6,-0.2 0.3,0 0.6,0.1 0.9,0.3 0.3,0.2 0.7,0.5 1.1,0.7 0.4,0.2 0.9,0.5 1.5,0.7 0.6,0.2 1.3,0.3 2.1,0.3 1.2,0 2.2,-0.3 2.8,-0.9 0.7,-0.6 1,-1.4 1,-2.5 0,-0.6 -0.2,-1.1 -0.5,-1.5 -0.3,-0.4 -0.7,-0.7 -1.2,-1 -0.5,-0.3 -1.1,-0.5 -1.7,-0.7 -0.6,-0.2 -1.3,-0.4 -2,-0.6 -0.7,-0.2 -1.3,-0.5 -2,-0.8 -0.6,-0.3 -1.2,-0.7 -1.7,-1.2 -0.5,-0.5 -0.9,-0.7 -1.2,-1.4 -0.3,-0.7 -0.5,-1.6000004 -0.5,-2.7000004 0,-0.8 0.2,-1.7 0.5,-2.5 0.3,-0.8 0.8,-1.5 1.5,-2.1 0.7,-0.6 1.5,-1.1 2.4,-1.5 0.9,-0.4 2,-0.6 3.2,-0.6 1.4,0 2.6,0.2 3.8,0.6 1.2,0.4 2.1,1 2.9,1.8 z"
   id="path1" />&#10;	<path
   id="path2"
   style="stroke-width:0.96696"
   class="st0"
   d="M 60.349609,2.1074219 V 24.806641 h 1.47461 c -5.25e-4,-0.0072 -0.0014,-0.01433 -0.002,-0.02148 -9.7e-5,-0.0013 1.02e-4,-0.0026 0,-0.0039 -5.4e-4,-0.004 -0.0014,-0.0077 -0.002,-0.01172 -0.0025,-0.01923 -0.0053,-0.03939 -0.0078,-0.05859 -0.0059,-0.04408 -0.01308,-0.08856 -0.01758,-0.132813 -0.0013,-0.01303 -5.4e-4,-0.02608 -0.002,-0.03906 -0.02246,-0.0054 -0.04008,-0.03224 -0.0293,-0.07617 0.0027,-0.01067 0.0052,-0.02253 0.0078,-0.0332 0.0035,-0.01375 0.0062,-0.0273 0.0098,-0.04102 -0.0021,-0.06112 -0.0023,-0.122813 -0.0078,-0.183594 -0.0048,-0.05149 -0.0097,-0.102917 -0.01563,-0.154297 h -0.002 c -0.0052,-0.04494 0.01635,-0.06974 0.03906,-0.07227 0.01608,-0.0018 0.03249,0.0076 0.04297,0.0293 0.0031,-0.02468 0.007,-0.04928 0.0098,-0.07422 0.0056,-0.04879 0.01138,-0.09775 0.01758,-0.146485 0.0069,-0.05248 0.0148,-0.10438 0.02539,-0.15625 6.72e-4,-0.0033 0.0013,-0.0065 0.002,-0.0098 -0.0037,-0.06392 -0.004,-0.127168 0.002,-0.191406 0.0011,-0.0061 0.0028,-0.01484 0.0039,-0.02148 h -0.05273 v -9.400391 h 1.064453 c 0.0031,-0.04938 0.0069,-0.09867 0.0098,-0.148437 0.024,-0.316839 0.05466,-0.633426 0.08984,-0.949219 0.0075,-0.06775 0.01576,-0.135418 0.02344,-0.203125 h -1.1875 V 3.5078125 H 72.972656 V 2.1074219 Z m 2.738282,10.5996091 c -0.0079,0.06973 -0.01568,0.139265 -0.02344,0.208985 -0.03097,0.278014 -0.05761,0.557114 -0.08008,0.835937 0.02307,-0.134175 0.04315,-0.267918 0.06445,-0.402344 0.03068,-0.1916 0.0581,-0.385404 0.09375,-0.576171 0.01786,0.01596 -0.0012,-0.06189 0.01953,-0.05859 0.07348,0.0118 0.05855,0.04354 0.06055,0.101562 0.0011,0.03503 0.0017,0.06847 0.002,0.103516 3.44e-4,0.04535 -6.3e-5,0.09137 0,0.136719 -0.002,0.317284 -0.0039,0.633924 -0.0039,0.951171 h 0.05664 c 0.02799,-0.161105 0.05124,-0.323201 0.07617,-0.484374 0.03731,-0.24594 0.07221,-0.490666 0.111328,-0.736329 0.0056,0.0029 0.01088,0.0025 0.01367,0.002 -4.21e-4,-0.01523 -0.0055,-0.03313 -0.002,-0.04687 -0.0034,-0.01527 -0.0058,-0.03034 0,-0.03516 z m 0.416015,0 c 0.0083,0.0019 0.01721,0.0053 0.02344,0.0098 0.0028,2.33e-4 0.0052,0.0015 0.0078,0.002 0.0042,8.03e-4 0.0038,0.005 0.002,0.0098 0.01152,0.0199 -0.0025,0.04541 -0.0039,0.06836 -0.0027,0.04492 -0.01322,0.209191 -0.01563,0.244141 -0.01794,0.249232 -0.0335,0.498439 -0.04492,0.748046 0.0015,-0.006 0.0044,-0.01161 0.0059,-0.01758 0.01183,-0.04868 0.02185,-0.09769 0.0332,-0.146484 0.06821,-0.304943 0.127709,-0.611334 0.1875,-0.917969 z m 0.273438,0 c -0.03499,0.254772 -0.06386,0.509648 -0.08984,0.765625 -0.01135,0.135031 -0.0261,0.270876 -0.0332,0.40625 -9.96e-4,0.01961 -0.0017,0.03896 -0.002,0.05859 0.09686,-0.25604 0.17449,-0.517456 0.253906,-0.779297 0.04698,-0.149883 0.09071,-0.301106 0.138672,-0.451172 z m 0.328125,0 c -0.05048,0.154934 -0.09776,0.311615 -0.146485,0.466797 -0.05242,0.172823 -0.103876,0.345958 -0.160156,0.517578 -0.01374,0.04189 -0.06849,0.20645 -0.0918,0.25586 -0.01012,0.02145 -0.02425,0.04054 -0.03711,0.06055 h 1.873047 c 0.01905,-0.07936 0.08697,-0.144829 0.136719,-0.203124 -0.0023,-0.0045 -0.0038,-0.0091 -0.0059,-0.01367 -0.02464,0.02145 -0.04943,0.04317 -0.07422,0.06445 -0.0012,0.0016 -0.0027,0.0023 -0.0039,0.0039 -0.01614,0.02186 -0.0315,0.04683 -0.05469,0.04492 -0.0067,0.0056 -0.01285,0.01195 -0.01953,0.01758 -0.02896,-0.03621 -0.08418,-0.0627 -0.08984,-0.107422 l -0.002,-0.002 0.002,-0.002 v -0.002 c -0.001,-0.03835 0.05524,-0.05075 0.08398,-0.07617 0.124631,-0.110199 0.252242,-0.220243 0.378906,-0.328125 0.0049,-0.0042 0.01067,-0.0075 0.01563,-0.01172 -0.0096,-0.01333 -0.01826,-0.02729 -0.02539,-0.04102 -0.0078,-0.01493 0.01447,-0.02447 0.04102,-0.0332 0.01133,-0.02146 0.05032,-0.02765 0.07227,-0.04297 0.0038,-0.0026 0.0079,-0.0052 0.01172,-0.0078 -0.0029,-0.0039 -0.0064,-0.0091 -0.01367,-0.01367 0.223563,-0.183352 0.448321,-0.365827 0.673828,-0.546875 h -2.47461 c -0.0052,0.08322 -0.01467,0.234472 -0.01562,0.25 -0.01882,0.290784 -0.02981,0.581764 -0.03711,0.873047 v 0.07813 c 7.2e-4,0.004 0.003,0.0077 0.0039,0.01172 0.0078,-0.04681 0.04985,-0.138553 0.05469,-0.150391 0.02068,-0.0508 0.07364,-0.02923 0.05273,0.02149 -0.01384,0.03359 -0.05679,0.169269 -0.109375,0.193359 -0.07276,0.03334 -0.05524,-0.14533 -0.05664,-0.15625 0.0073,-0.291978 0.01824,-0.583521 0.03711,-0.875 0.0052,-0.08235 0.0105,-0.163865 0.01563,-0.246094 z m 2.964843,0 c -0.09274,0.06063 -0.184458,0.122349 -0.27539,0.185547 -0.02668,0.02282 -0.05337,0.04557 -0.08008,0.06836 -0.05989,0.05123 -0.11993,0.10291 -0.179688,0.154296 -0.202461,0.200082 -0.401753,0.403187 -0.59375,0.613282 0.450765,-0.346934 0.902414,-0.693366 1.367188,-1.021485 z m 0.490235,0 c -0.026,0.01769 -0.05214,0.03518 -0.07813,0.05274 -0.499737,0.348747 -0.982031,0.722192 -1.464844,1.09375 -0.0302,0.02314 -0.125082,0.09575 -0.203125,0.154296 h 0.482422 c 0.0066,-0.0072 0.02911,-0.033 0.0293,-0.0332 0.141655,-0.153474 0.247051,-0.258831 0.394531,-0.410156 0.285274,-0.289837 0.576164,-0.57347 0.867188,-0.857422 z m 0.232422,0 c -0.324652,0.317268 -0.650278,0.633501 -0.96875,0.957031 -0.09466,0.09712 -0.171977,0.17639 -0.25,0.257813 0.247062,-0.186587 0.490127,-0.376875 0.736328,-0.564453 0.237953,-0.184502 0.476868,-0.3708 0.716797,-0.552734 0.04314,-0.03272 0.08561,-0.06556 0.128906,-0.09766 z m 0.615234,0 c 0.01521,0.01577 0.02646,0.04816 0.0332,0.107422 0.0026,0.02303 -0.03091,0.03594 -0.04687,0.05274 -0.101982,0.107303 -0.208243,0.209413 -0.310547,0.316406 -0.247366,0.250756 -0.499369,0.49865 -0.74414,0.751953 0.4767,-0.342111 0.950036,-0.690171 1.43164,-1.025391 0.06515,-0.04398 0.129726,-0.08854 0.195313,-0.132812 0.0077,-0.02904 0.01647,-0.04848 0.01367,-0.07031 z m 0.619141,0 c 0.0018,0.0075 0.004,0.01762 0.0059,0.02539 0.01279,-0.0085 0.02622,-0.01703 0.03906,-0.02539 z m 0.476562,0 c -0.0056,0.0072 -0.01263,0.01607 -0.01367,0.01758 -0.126999,0.149157 -0.258575,0.294583 -0.390625,0.439453 -1.35e-4,0.01496 -0.0032,0.02994 -0.002,0.04492 0.0046,0.05373 0.03156,0.104394 0.03516,0.158204 0.0035,0.05179 -0.01652,0.102396 -0.01562,0.154296 4.64e-4,0.02676 0.0048,0.05344 0.0098,0.08008 0.413328,-0.304079 0.827685,-0.606028 1.251953,-0.894531 z m 1.4375,0 c -0.135932,0.09267 -0.273202,0.183671 -0.410156,0.275391 0.0078,0.01135 0.01648,0.02201 0.02539,0.03711 0.0035,0.0059 -3.27e-4,0.01056 -0.0059,0.01563 0.0013,5.22e-4 0.0031,1.53e-4 0.0039,0.002 0.0047,0.01043 0.0089,0.02032 0.01367,0.03125 0.08136,-0.05889 0.164232,-0.117575 0.246094,-0.175781 0.02019,-0.01407 0.157472,-0.111953 0.265625,-0.185547 z m -1.666015,0.04492 c -0.07732,0.04692 -0.142109,0.08792 -0.207032,0.130859 0.0065,0.02668 0.0129,0.05334 0.01953,0.08008 0.06318,-0.07011 0.1254,-0.139939 0.1875,-0.210938 z m -6.105469,0.1875 c -0.02322,0.139254 -0.04406,0.278577 -0.06641,0.417969 -0.03441,0.217128 -0.06826,0.43463 -0.111328,0.65039 h 0.171874 c 1.57e-4,-0.317232 0.0038,-0.633907 0.0059,-0.951171 -4.9e-5,-0.03953 1.27e-4,-0.07833 0,-0.117188 z m 5.802734,0.0078 c -0.03927,0.02649 -0.07518,0.05102 -0.121094,0.08203 -0.460123,0.320365 -0.912015,0.651306 -1.367187,0.978515 h 0.681641 c 0.09801,-0.11792 0.191553,-0.225284 0.298828,-0.349609 0.17442,-0.203373 0.356982,-0.401047 0.537109,-0.599609 -0.01006,-0.03706 -0.02049,-0.074 -0.0293,-0.111328 z m 2.128906,0.05664 c -0.197814,0.196067 -0.395654,0.392127 -0.59375,0.587891 0.07576,0.09509 0.03363,0.113079 -0.02344,0.197265 -0.01865,0.02105 -0.03781,0.04161 -0.05664,0.0625 0.0034,-0.0025 0.0064,-0.0054 0.0098,-0.0078 0.21997,-0.165151 0.441454,-0.330231 0.664062,-0.492188 z m -0.222656,0.01758 C 70.498364,13.292466 70.12354,13.57298 69.75,13.853516 c 0.157584,-0.06669 0.314368,-0.134203 0.472656,-0.199219 0.009,-0.0024 0.01845,-0.0066 0.02734,-0.0098 0.209846,-0.207754 0.418942,-0.415412 0.628906,-0.623047 z m -7.214844,0.154297 c -0.03126,0.154451 -0.06325,0.309101 -0.09766,0.462891 -0.01079,0.04635 -0.04566,0.204876 -0.0625,0.259766 -0.008,0.02595 -0.0079,0.05943 -0.0293,0.07617 -0.06473,0.0507 -0.06028,-0.03462 -0.06055,-0.05078 -3.97e-4,-0.02513 0.0014,-0.05104 0.002,-0.07617 0.0083,-0.188683 0.01742,-0.37792 0.0293,-0.566406 -0.01251,0.08393 -0.02438,0.16806 -0.03711,0.251953 -0.02452,0.158513 -0.04872,0.316704 -0.07617,0.474609 h 0.273438 c -0.012,-0.01133 -0.0072,-0.03236 -0.0078,-0.04883 -0.0011,-0.02831 4.06e-4,-0.05765 0.002,-0.08594 0.0071,-0.135916 0.02181,-0.270678 0.0332,-0.40625 0.0098,-0.09687 0.02036,-0.194267 0.03125,-0.291016 z m 5.337891,0.0957 c -0.144945,0.158699 -0.289759,0.317502 -0.429687,0.480469 -0.07965,0.0923 -0.15079,0.173445 -0.220704,0.255859 h 0.226563 c 0.150364,-0.111438 0.300511,-0.223187 0.451172,-0.333984 -0.006,-0.05335 -0.01681,-0.106914 -0.01758,-0.160156 -5.5e-4,-0.03817 0.02243,-0.07326 0.01953,-0.111328 -0.0033,-0.04445 -0.01759,-0.08749 -0.0293,-0.13086 z m 0.765625,0.04102 c -0.211149,0.152913 -0.422796,0.308407 -0.632812,0.462891 -2.29e-4,0.0055 2.56e-4,0.01084 0,0.01563 0.160964,-0.117868 0.322021,-0.23561 0.484375,-0.351563 0.04926,-0.0425 0.09918,-0.08446 0.148437,-0.126953 z m -2.214844,0.203125 c -0.173298,0.145164 -0.345624,0.290817 -0.517578,0.4375 -0.02139,0.01829 -0.04307,0.03635 -0.06445,0.05469 h 0.101563 c 0.157477,-0.166493 0.319243,-0.329543 0.480468,-0.492187 z m 2.925782,0.197266 c -0.0027,4.95e-4 -0.0051,0.0013 -0.0078,0.002 0.0017,0.0012 0.0021,0.0026 0.0039,0.0039 0.002,0.0014 0.0063,-0.0063 0.0039,-0.0059 z m -3.419922,0.01953 c -0.119241,0.09215 -0.237577,0.184152 -0.357422,0.27539 h 0.04102 c 0.105365,-0.09181 0.210837,-0.183495 0.316406,-0.27539 z m -3.609375,0.115234 c -0.01431,0.0033 -0.01045,0.01932 -0.002,0.03711 4.44e-4,-0.0014 0.0016,-0.0025 0.002,-0.0039 0.0028,-0.01098 0.005,-0.02225 0.0078,-0.0332 -0.0028,-5.8e-5 -0.0058,-4.66e-4 -0.0078,0 z m 5.566406,0.01563 c -0.06562,0.04839 -0.131726,0.09611 -0.197266,0.144531 h 0.02344 c 0.04767,-0.03563 0.09473,-0.07209 0.142578,-0.107421 0.01048,-0.0077 0.02076,-0.01572 0.03125,-0.02344 -4.02e-4,-0.0045 4.13e-4,-0.0091 0,-0.01367 z m 1.84375,0.02539 c -0.05342,0.03921 -0.107086,0.07948 -0.160156,0.11914 h 0.03516 c 0.04161,-0.03977 0.08348,-0.07927 0.125,-0.11914 z m -0.878906,0.02344 c -0.07617,0.03224 -0.152467,0.06367 -0.228516,0.0957 h 0.132813 c 0.03167,-0.03205 0.06247,-0.06218 0.0957,-0.0957 z m -2.47461,9.496094 c 0.02598,0.0034 0.05212,0.0061 0.07813,0.0098 0.0043,-0.0036 0.0094,-0.0062 0.01367,-0.0098 z m 0.238282,0 c -0.0084,0.0068 -0.01706,0.01271 -0.02539,0.01953 0.03576,-0.0067 0.07174,-0.01264 0.107422,-0.01953 z m -5.792969,0.705078 c -0.0065,0.02433 -0.01302,0.04793 -0.01953,0.07227 -0.0079,0.02884 -0.01578,0.05704 -0.02344,0.08594 -1.21e-4,0.01437 1.52e-4,0.02876 0,0.04297 -1.45e-4,0.01713 -2.9e-5,0.03395 0,0.05078 0.0083,-0.04124 0.01844,-0.08194 0.02734,-0.123046 2.42e-4,-0.0019 -2.54e-4,-0.0039 0,-0.0059 0.0045,-0.03557 0.0095,-0.07182 0.01367,-0.107422 5.82e-4,-0.0052 0.0016,-0.01037 0.002,-0.01563 z"
   clip-path="url(#clipPath168)" />&#10;	&#10;	&#10;<path
   style="fill:#000000"
   d="m 61.394495,22.7236 -0.200636,0.414216"
   id="path170" /><rect
   style="fill:#ffffff"
   id="rect171"
   width="1.5376964"
   height="22.626104"
   x="60.4095"
   y="2.233321" /><rect
   style="fill:#ffffff"
   id="rect172"
   width="1.5859375"
   height="0.2265625"
   x="60.367188"
   y="2.109375" /></svg>
